HIERARCHY
ROOT Hips
{
	OFFSET 88.192772 91.744102 380.619385
	CHANNELS 6 Xposition Yposition Zposition Zrotation Yrotation Xrotation 
	JOINT LeftUpLeg
	{
		OFFSET 0.103456 1.857832 10.548506
		CHANNELS 3 Zrotation Yrotation Xrotation
		JOINT LeftLeg
		{
			OFFSET 43.499996 -0.000050 0.000004
			CHANNELS 3 Zrotation Yrotation Xrotation
			JOINT LeftFoot
			{
				OFFSET 42.372196 0.000023 -0.000001
				CHANNELS 3 Zrotation Yrotation Xrotation
				JOINT LeftToe
				{
					OFFSET 17.299999 -0.000001 0.000005
					CHANNELS 3 Zrotation Yrotation Xrotation
					End Site
					{
						OFFSET 0.000000 0.000000 0.000000
					}
				}
			}
		}
	}
	JOINT RightUpLeg
	{
		OFFSET 0.103461 1.857838 -10.548502
		CHANNELS 3 Zrotation Yrotation Xrotation
		JOINT RightLeg
		{
			OFFSET 43.500053 -0.000023 0.000017
			CHANNELS 3 Zrotation Yrotation Xrotation
			JOINT RightFoot
			{
				OFFSET 42.372261 -0.000019 0.000013
				CHANNELS 3 Zrotation Yrotation Xrotation
				JOINT RightToe
				{
					OFFSET 17.299999 -0.000002 0.000004
					CHANNELS 3 Zrotation Yrotation Xrotation
					End Site
					{
						OFFSET 0.000000 0.000000 0.000000
					}
				}
			}
		}
	}
	JOINT Spine
	{
		OFFSET 6.901962 -2.603720 0.000005
		CHANNELS 3 Zrotation Yrotation Xrotation
		JOINT Spine1
		{
			OFFSET 12.588104 -0.000017 -0.000004
			CHANNELS 3 Zrotation Yrotation Xrotation
			JOINT Spine2
			{
				OFFSET 12.343203 0.000008 0.000001
				CHANNELS 3 Zrotation Yrotation Xrotation
				JOINT Neck
				{
					OFFSET 25.832893 0.000002 -0.000003
					CHANNELS 3 Zrotation Yrotation Xrotation
					JOINT Head
					{
						OFFSET 11.766610 0.000004 -0.000002
						CHANNELS 3 Zrotation Yrotation Xrotation
						End Site
						{
							OFFSET 0.000000 0.000000 0.000000
						}
					}
				}
				JOINT LeftShoulder
				{
					OFFSET 19.745901 -1.480358 6.000100
					CHANNELS 3 Zrotation Yrotation Xrotation
					JOINT LeftArm
					{
						OFFSET 11.284128 -0.000004 -0.000015
						CHANNELS 3 Zrotation Yrotation Xrotation
						JOINT LeftForeArm
						{
							OFFSET 33.000053 0.000025 0.000029
							CHANNELS 3 Zrotation Yrotation Xrotation
							JOINT LeftHand
							{
								OFFSET 25.200005 0.000009 -0.000002
								CHANNELS 3 Zrotation Yrotation Xrotation
								End Site
								{
									OFFSET 0.000000 0.000000 0.000000
								}
							}
						}
					}
				}
				JOINT RightShoulder
				{
					OFFSET 19.746098 -1.480389 -6.000077
					CHANNELS 3 Zrotation Yrotation Xrotation
					JOINT RightArm
					{
						OFFSET 11.284138 -0.000023 -0.000010
						CHANNELS 3 Zrotation Yrotation Xrotation
						JOINT RightForeArm
						{
							OFFSET 33.000103 0.000022 0.000003
							CHANNELS 3 Zrotation Yrotation Xrotation
							JOINT RightHand
							{
								OFFSET 25.199776 0.000131 0.000429
								CHANNELS 3 Zrotation Yrotation Xrotation
								End Site
								{
									OFFSET 0.000000 0.000000 0.000000
								}
							}
						}
					}
				}
			}
		}
	}
}
MOTION
Frames: 11
Frame Time: 0.033333
88.192772 91.744102 -380.619385 88.187728 -6.042049 -85.76855 -175.819356 1.100404 177.068365 -14.566258 -2.964535 -11.280844 83.960647 7.651265 -1.58881 21.454562 0.003118 1.8e-05 -175.437398 0.985497 -174.779664 -14.56511 2.380304 7.748086 85.666637 -5.258392 0.931209 21.454551 -0.003089 0.0 7.078064 -0.423322 -0.079288 4.111514 -0.825655 -0.161145 3.793381 -0.840439 -0.156105 1.525265 4.83508 1.59309 -11.280252 -6.478809 4.898822 32.688906 -87.236003 145.651708 2.455597 4.692128 -3.716501 -17.390094 -20.13027 1.398071 11.862971 6.007868 -0.528804 -90.671376 79.792401 91.995593 -6.301649 1.447027 4.198776 -16.355721 17.073989 -1.17993 12.182021 -3.748682 14.12408 
88.196007 91.743797 -380.62561 88.187728 -6.042049 -85.76855 -175.817416 1.097698 177.066207 -14.568667 -2.964531 -11.280837 83.963085 7.651253 -1.591629 21.454558 0.003111 1.9e-05 -175.435308 0.982681 -174.781795 -14.566709 2.380303 7.749882 85.669068 -5.259872 0.929639 21.454553 -0.003084 1e-06 7.078064 -0.423322 -0.079288 4.111514 -0.825655 -0.161145 3.793381 -0.840439 -0.156105 1.523302 4.840865 1.593075 -11.281622 -6.478828 4.901801 32.720523 -87.236003 145.62018 2.458898 4.695123 -3.714491 -17.390095 -20.13027 1.39806 11.862518 6.020236 -0.546752 -90.690617 79.790277 91.976407 -6.308461 1.447026 4.186668 -16.361269 17.086705 -1.17994 12.190639 -3.758149 14.090961 
88.213547 91.742111 -380.659698 88.187728 -6.042049 -85.76855 -175.806706 1.082702 177.05715 -14.582713 -2.964533 -11.280844 83.976841 7.643722 -1.606715 21.454557 0.003116 1.8e-05 -175.423423 0.967296 -174.792095 -14.576028 2.380303 7.759859 85.682367 -5.268077 0.921315 21.454553 -0.003091 1e-06 7.078064 -0.423322 -0.079288 4.11151 -0.825655 -0.166575 3.79338 -0.84045 -0.161563 1.509949 4.869878 1.598367 -11.289814 -6.475906 4.915021 32.9376 -87.235934 145.404332 2.478787 4.713987 -3.703309 -17.395059 -20.137315 1.398054 11.850548 6.086198 -0.643455 -90.79587 79.77982 91.871256 -6.34631 1.447026 4.116844 -16.38601 17.154519 -1.179933 12.240297 -3.816768 13.902348 
88.23156 91.740189 -380.694885 88.187728 -6.042049 -85.76855 -175.795641 1.067982 177.053817 -14.598044 -2.964543 -11.280848 83.991273 7.637492 -1.622803 21.454557 0.003104 1.6e-05 -175.41173 0.951693 -174.800797 -14.588883 2.38031 7.770147 85.697181 -5.276466 0.913056 21.454553 -0.0031 0.0 7.078064 -0.423322 -0.079288 4.111514 -0.825662 -0.17313 3.793379 -0.840437 -0.168147 1.492088 4.894126 1.603203 -11.293436 -6.468467 4.925013 33.183361 -87.235859 145.159838 2.501441 4.734132 -3.692818 -17.401859 -20.143633 1.398054 11.829159 6.132352 -0.754296 -90.885516 79.773338 91.781555 -6.379079 1.447025 4.095049 -16.421822 17.196395 -1.179922 12.294691 -3.844079 13.709271 
88.249748 91.738289 -380.730194 88.187728 -6.042049 -85.76855 -175.784317 1.054581 177.058557 -14.612969 -2.964534 -11.280834 84.00505 7.634078 -1.640371 21.45456 0.003102 1.7e-05 -175.40031 0.936292 -174.807026 -14.60332 2.380312 7.779373 85.712146 -5.284187 0.904586 21.454555 -0.003081 0.0 7.078068 -0.423318 -0.08363 4.111513 -0.825661 -0.181742 3.793378 -0.840442 -0.176775 1.471859 4.910845 1.608904 -11.285609 -6.458978 4.932548 33.406773 -87.235934 144.937529 2.525456 4.751255 -3.684034 -17.412534 -20.146652 1.398056 11.80393 6.130511 -0.900076 -90.942193 79.77426 91.724277 -6.398274 1.447026 4.124224 -16.478461 17.227829 -1.179939 12.31087 -3.813085 13.586103 
88.267792 91.73645 -380.764587 88.187728 -6.042049 -85.76855 -175.773552 1.043092 177.064909 -14.628165 -2.964542 -11.280836 84.018041 7.631354 -1.659041 21.454557 0.003103 1.9e-05 -175.390051 0.921802 -174.810181 -14.61941 2.380314 7.786539 85.726893 -5.290518 0.895836 21.454553 -0.003109 -4e-06 7.078065 -0.423323 -0.08853 4.111513 -0.82565 -0.191481 3.793381 -0.840436 -0.186527 1.451044 4.917544 1.614224 -11.270966 -6.443322 4.934677 33.605227 -87.236003 144.74011 2.549632 4.76523 -3.68043 -17.4265 -20.144198 1.398066 11.777039 6.104732 -1.045845 -90.966174 79.778017 91.699763 -6.404154 1.438405 4.183883 -16.559234 17.275746 -1.17994 12.270863 -3.80209 13.514826 
88.285316 91.734734 -380.797394 88.187728 -6.042049 -85.76855 -175.763498 1.033289 177.069444 -14.643342 -2.960636 -11.280841 84.030007 7.628546 -1.677811 21.454557 0.003109 1.8e-05 -175.381445 0.909001 -174.809717 -14.636967 2.380313 7.790533 85.741011 -5.294759 0.886716 21.454555 -0.003101 -3e-06 7.078075 -0.423322 -0.093618 4.111507 -0.825659 -0.20159 3.793377 -0.840432 -0.196672 1.431139 4.910855 1.618345 -11.254678 -6.41606 4.9283 33.736907 -87.235934 144.609066 2.57098 4.775328 -3.685474 -17.44189 -20.134038 1.398059 11.748139 6.075447 -1.161731 -90.966549 79.779628 91.699333 -6.403946 1.423809 4.245935 -16.660498 17.339557 -1.184884 12.224342 -3.814831 13.494535 
88.302101 91.733231 -380.828308 88.187728 -6.042049 -85.76855 -175.754032 1.02549 177.070646 -14.657502 -2.955075 -11.280835 84.04058 7.625613 -1.69633 21.454558 0.003098 1.7e-05 -175.3743 0.898095 -174.804922 -14.654576 2.38031 7.790458 85.753954 -5.295841 0.877162 21.454551 -0.003101 1e-06 7.078072 -0.42333 -0.098707 4.111143 -0.825644 -0.21175 3.793026 -0.840442 -0.206829 1.41032 4.89751 1.619517 -11.234416 -6.384289 4.915536 33.787382 -87.235859 144.558686 2.58843 4.780353 -3.700569 -17.457094 -20.114823 1.398058 11.716451 6.043531 -1.24194 -90.97006 79.775148 91.696171 -6.403784 1.410681 4.298962 -16.769622 17.413992 -1.190588 12.181092 -3.838189 13.457333 
88.318092 91.732094 -380.857086 88.187714 -6.042051 -85.773277 -175.745671 1.018913 177.067313 -14.66993 -2.948129 -11.28085 84.049473 7.62218 -1.714207 21.45456 0.003119 1.9e-05 -175.368549 0.888702 -174.794732 -14.670083 2.380298 7.78543 85.764889 -5.294492 0.867066 21.454551 -0.003078 1e-06 7.078078 -0.423329 -0.103624 4.110606 -0.82565 -0.221602 3.792477 -0.840452 -0.216653 1.38315 4.886489 1.616531 -11.203898 -6.356653 4.900052 33.73467 -87.235791 144.610992 2.59831 4.78083 -3.71174 -17.462591 -20.093648 1.398065 11.68369 6.012434 -1.301026 -90.988925 79.758708 91.67861 -6.415252 1.400782 4.34146 -16.871327 17.487151 -1.196133 12.149657 -3.822046 13.340941 
88.333191 91.731422 -380.883514 88.187714 -6.036898 -85.781439 -175.738595 1.013501 177.057109 -14.679673 -2.939848 -11.280838 84.056304 7.617654 -1.731065 21.454562 0.003115 2e-05 -175.364233 0.880902 -174.778844 -14.682019 2.376016 7.774827 85.77316 -5.289012 0.856244 21.454553 -0.003097 -1e-06 7.078071 -0.423327 -0.108195 4.109902 -0.825655 -0.230752 3.791765 -0.840437 -0.225811 1.347743 4.877413 1.608733 -11.161023 -6.332502 4.880828 33.564106 -87.24075 144.780777 2.600389 4.778653 -3.716955 -17.458889 -20.073806 1.398071 11.65737 5.968318 -1.313659 -91.022878 79.730936 91.647021 -6.439389 1.394353 4.364527 -16.958262 17.539885 -1.200286 12.122293 -3.800125 13.323 
88.347427 91.731293 -380.907501 88.187721 -6.029991 -85.794355 -175.732421 1.008807 177.038052 -14.6858 -2.930638 -11.276916 84.060866 7.611852 -1.746577 21.454555 0.003112 1.8e-05 -175.36202 0.8742 -174.760048 -14.68942 2.37119 7.759491 85.778536 -5.280365 0.844898 21.454553 -0.003091 -0.0 7.078087 -0.423329 -0.110183 4.10907 -0.825652 -0.238767 3.790947 -0.840448 -0.233815 1.304235 4.871676 1.597806 -11.106331 -6.312624 4.860202 33.255529 -87.247361 145.087589 2.595225 4.773073 -3.720926 -17.453532 -20.056082 1.398055 11.650752 5.906155 -1.26594 -91.063531 79.699182 91.609127 -6.468004 1.39127 4.365852 -17.027867 17.576344 -1.203148 12.10001 -3.800637 13.405761 
